{
  "accessors": [
    {
      "bufferView": 2,
      "componentType": 5126,
      "count": 6371,
      "max": [
        6.771653652191162,
        0.9032677412033081,
        16.003463745117188
      ],
      "min": [
        -6.744999885559082,
        -0.4449999928474426,
        13.660354614257813
      ],
      "type": "VEC3"
    },
    {
      "bufferView": 2,
      "byteOffset": 76452,
      "componentType": 5126,
      "count": 6371,
      "max": [
        0.9988373517990112,
        0.9999943375587463,
        0.9978975653648376
      ],
      "min": [
        -0.9991163611412048,
        -0.9999605417251587,
        -0.9996926784515381
      ],
      "type": "VEC3"
    },
    {
      "bufferView": 1,
      "componentType": 5126,
      "count": 6371,
      "max": [
        0.9968000054359436,
        -0.014600000344216824
      ],
      "min": [
        0.0031999999191612005,
        -0.9968000054359436
      ],
      "type": "VEC2"
    },
    {
      "bufferView": 1,
      "byteOffset": 50968,
      "componentType": 5126,
      "count": 6371,
      "max": [
        0.9968000054359436,
        -0.014600000344216824
      ],
      "min": [
        0.0031999999191612005,
        -0.9968000054359436
      ],
      "type": "VEC2"
    },
    {
      "bufferView": 0,
      "componentType": 5125,
      "count": 18870,
      "type": "SCALAR"
    },
    {
      "bufferView": 2,
      "byteOffset": 152904,
      "componentType": 5126,
      "count": 6795,
      "max": [
        7.5722832679748535,
        0.9130708575248718,
        14.261180877685547
      ],
      "min": [
        -7.562362194061279,
        -0.7161023616790771,
        11.748976707458496
      ],
      "type": "VEC3"
    },
    {
      "bufferView": 2,
      "byteOffset": 234444,
      "componentType": 5126,
      "count": 6795,
      "max": [
        0.9998633861541748,
        1.0,
        0.996566653251648
      ],
      "min": [
        -0.9998270273208618,
        -1.0,
        -0.9995962381362915
      ],
      "type": "VEC3"
    },
    {
      "bufferView": 1,
      "byteOffset": 101936,
      "componentType": 5126,
      "count": 6795,
      "max": [
        0.8535000085830688,
        -0.5121999979019165
      ],
      "min": [
        0.0020000000949949026,
        -0.9990000128746033
      ],
      "type": "VEC2"
    },
    {
      "bufferView": 1,
      "byteOffset": 156296,
      "componentType": 5126,
      "count": 6795,
      "max": [
        0.8535000085830688,
        -0.5121999979019165
      ],
      "min": [
        0.0020000000949949026,
        -0.9990000128746033
      ],
      "type": "VEC2"
    },
    {
      "bufferView": 0,
      "byteOffset": 75480,
      "componentType": 5125,
      "count": 34740,
      "type": "SCALAR"
    },
    {
      "bufferView": 2,
      "byteOffset": 315984,
      "componentType": 5126,
      "count": 2717,
      "max": [
        2.9894094467163086,
        1.8799606561660767,
        2.0020079612731934
      ],
      "min": [
        -2.968346357345581,
        -1.604724407196045,
        0.31417322158813477
      ],
      "type": "VEC3"
    },
    {
      "bufferView": 2,
      "byteOffset": 348588,
      "componentType": 5126,
      "count": 2717,
      "max": [
        0.999974250793457,
        0.9933632016181946,
        0.9996511340141296
      ],
      "min": [
        -1.0,
        -0.999204695224762,
        -0.9964717626571655
      ],
      "type": "VEC3"
    },
    {
      "bufferView": 1,
      "byteOffset": 210656,
      "componentType": 5126,
      "count": 2717,
      "max": [
        0.9955999851226807,
        -0.5317000150680542
      ],
      "min": [
        0.004900000058114529,
        -0.9937000274658203
      ],
      "type": "VEC2"
    },
    {
      "bufferView": 1,
      "byteOffset": 232392,
      "componentType": 5126,
      "count": 2717,
      "max": [
        0.9955999851226807,
        -0.5317000150680542
      ],
      "min": [
        0.004900000058114529,
        -0.9937000274658203
      ],
      "type": "VEC2"
    },
    {
      "bufferView": 0,
      "byteOffset": 214440,
      "componentType": 5125,
      "count": 13530,
      "type": "SCALAR"
    },
    {
      "bufferView": 2,
      "byteOffset": 381192,
      "componentType": 5126,
      "count": 9146,
      "max": [
        2.595393657684326,
        2.25862193107605,
        15.09527587890625
      ],
      "min": [
        -2.5757086277008057,
        -1.2009055614471436,
        1.4640945196151733
      ],
      "type": "VEC3"
    },
    {
      "bufferView": 2,
      "byteOffset": 490944,
      "componentType": 5126,
      "count": 9146,
      "max": [
        1.0,
        1.0,
        1.0
      ],
      "min": [
        -1.0,
        -1.0,
        -0.9995425939559937
      ],
      "type": "VEC3"
    },
    {
      "bufferView": 1,
      "byteOffset": 254128,
      "componentType": 5126,
      "count": 9146,
      "max": [
        1.9940999746322632,
        1.9955999851226807
      ],
      "min": [
        1.0010000467300415,
        1.0473999977111816
      ],
      "type": "VEC2"
    },
    {
      "bufferView": 1,
      "byteOffset": 327296,
      "componentType": 5126,
      "count": 9146,
      "max": [
        1.9940999746322632,
        1.9955999851226807
      ],
      "min": [
        1.0010000467300415,
        1.0473999977111816
      ],
      "type": "VEC2"
    },
    {
      "bufferView": 0,
      "byteOffset": 268560,
      "componentType": 5125,
      "count": 42300,
      "type": "SCALAR"
    },
    {
      "bufferView": 2,
      "byteOffset": 600696,
      "componentType": 5126,
      "count": 16974,
      "max": [
        1.7347244024276733,
        1.8533858060836792,
        24.680156707763672
      ],
      "min": [
        -1.8254330158233643,
        -1.783543348312378,
        20.72047233581543
      ],
      "type": "VEC3"
    },
    {
      "bufferView": 2,
      "byteOffset": 804384,
      "componentType": 5126,
      "count": 16974,
      "max": [
        0.9999290108680725,
        0.9999879002571106,
        0.9999721050262451
      ],
      "min": [
        -0.9999819397926331,
        -0.999961793422699,
        -0.9990675449371338
      ],
      "type": "VEC3"
    },
    {
      "bufferView": 1,
      "byteOffset": 400464,
      "componentType": 5126,
      "count": 16974,
      "max": [
        1.0002000331878662,
        0.0005000000237487257
      ],
      "min": [
        -0.0019000000320374966,
        -1.000100016593933
      ],
      "type": "VEC2"
    },
    {
      "bufferView": 1,
      "byteOffset": 536256,
      "componentType": 5126,
      "count": 16974,
      "max": [
        1.0002000331878662,
        0.0005000000237487257
      ],
      "min": [
        -0.0019000000320374966,
        -1.000100016593933
      ],
      "type": "VEC2"
    },
    {
      "bufferView": 0,
      "byteOffset": 437760,
      "componentType": 5125,
      "count": 45954,
      "type": "SCALAR"
    },
    {
      "bufferView": 2,
      "byteOffset": 1008072,
      "componentType": 5126,
      "count": 3926,
      "max": [
        0.5777952671051025,
        -0.5470078587532043,
        23.23968505859375
      ],
      "min": [
        -0.5567322969436646,
        -1.5068503618240356,
        21.836851119995117
      ],
      "type": "VEC3"
    },
    {
      "bufferView": 2,
      "byteOffset": 1055184,
      "componentType": 5126,
      "count": 3926,
      "max": [
        0.999662458896637,
        1.0,
        1.0
      ],
      "min": [
        -1.0,
        -1.0,
        -0.9999638795852661
      ],
      "type": "VEC3"
    },
    {
      "bufferView": 1,
      "byteOffset": 672048,
      "componentType": 5126,
      "count": 3926,
      "max": [
        1.9951000213623047,
        0.9909999966621399
      ],
      "min": [
        0.006300000008195639,
        0.004699999932199717
      ],
      "type": "VEC2"
    },
    {
      "bufferView": 1,
      "byteOffset": 703456,
      "componentType": 5126,
      "count": 3926,
      "max": [
        1.9951000213623047,
        0.9909999966621399
      ],
      "min": [
        0.006300000008195639,
        0.004699999932199717
      ],
      "type": "VEC2"
    },
    {
      "bufferView": 0,
      "byteOffset": 621576,
      "componentType": 5125,
      "count": 21399,
      "type": "SCALAR"
    },
    {
      "bufferView": 2,
      "byteOffset": 1102296,
      "componentType": 5126,
      "count": 9910,
      "max": [
        3.5412991046905518,
        2.215275526046753,
        15.464134216308594
      ],
      "min": [
        -3.5201969146728516,
        -1.3196849822998047,
        10.199488639831543
      ],
      "type": "VEC3"
    },
    {
      "bufferView": 2,
      "byteOffset": 1221216,
      "componentType": 5126,
      "count": 9910,
      "max": [
        1.0,
        0.9999806880950928,
        0.9999778270721436
      ],
      "min": [
        -0.999976634979248,
        -0.9996655583381653,
        -0.9999062418937683
      ],
      "type": "VEC3"
    },
    {
      "bufferView": 1,
      "byteOffset": 734864,
      "componentType": 5126,
      "count": 9910,
      "max": [
        0.9980999827384949,
        -0.0015999999595806003
      ],
      "min": [
        0.0013000000035390258,
        -0.9987000226974487
      ],
      "type": "VEC2"
    },
    {
      "bufferView": 1,
      "byteOffset": 814144,
      "componentType": 5126,
      "count": 9910,
      "max": [
        0.9980999827384949,
        -0.0015999999595806003
      ],
      "min": [
        0.0013000000035390258,
        -0.9987000226974487
      ],
      "type": "VEC2"
    },
    {
      "bufferView": 0,
      "byteOffset": 707172,
      "componentType": 5125,
      "count": 30324,
      "type": "SCALAR"
    },
    {
      "bufferView": 2,
      "byteOffset": 1340136,
      "componentType": 5126,
      "count": 6300,
      "max": [
        1.3448818922042847,
        1.1142913103103638,
        24.488740921020508
      ],
      "min": [
        -1.3210235834121704,
        -1.832440972328186,
        18.278148651123047
      ],
      "type": "VEC3"
    },
    {
      "bufferView": 2,
      "byteOffset": 1415736,
      "componentType": 5126,
      "count": 6300,
      "max": [
        0.9999582171440125,
        0.9981558918952942,
        1.0
      ],
      "min": [
        -0.9997116327285767,
        -0.9999546408653259,
        -0.9999455809593201
      ],
      "type": "VEC3"
    },
    {
      "bufferView": 1,
      "byteOffset": 893424,
      "componentType": 5126,
      "count": 6300,
      "max": [
        0.9951000213623047,
        0.9937000274658203
      ],
      "min": [
        0.0038999998942017555,
        0.002400000113993883
      ],
      "type": "VEC2"
    },
    {
      "bufferView": 1,
      "byteOffset": 943824,
      "componentType": 5126,
      "count": 6300,
      "max": [
        0.9951000213623047,
        0.9937000274658203
      ],
      "min": [
        0.0038999998942017555,
        0.002400000113993883
      ],
      "type": "VEC2"
    },
    {
      "bufferView": 0,
      "byteOffset": 828468,
      "componentType": 5125,
      "count": 33267,
      "type": "SCALAR"
    },
    {
      "bufferView": 2,
      "byteOffset": 1491336,
      "componentType": 5126,
      "count": 13003,
      "max": [
        6.658464431762695,
        1.6577953100204468,
        21.562992095947266
      ],
      "min": [
        -6.711456775665283,
        -1.838031530380249,
        13.72744083404541
      ],
      "type": "VEC3"
    },
    {
      "bufferView": 2,
      "byteOffset": 1647372,
      "componentType": 5126,
      "count": 13003,
      "max": [
        1.0,
        1.0,
        1.0
      ],
      "min": [
        -0.9999997019767761,
        -1.0,
        -0.9999940395355225
      ],
      "type": "VEC3"
    },
    {
      "bufferView": 1,
      "byteOffset": 994224,
      "componentType": 5126,
      "count": 13003,
      "max": [
        1.9984999895095825,
        1.9980000257492065
      ],
      "min": [
        1.0019999742507935,
        1.0039000511169434
      ],
      "type": "VEC2"
    },
    {
      "bufferView": 1,
      "byteOffset": 1098248,
      "componentType": 5126,
      "count": 13003,
      "max": [
        1.9984999895095825,
        1.9980000257492065
      ],
      "min": [
        1.0019999742507935,
        1.0039000511169434
      ],
      "type": "VEC2"
    },
    {
      "bufferView": 0,
      "byteOffset": 961536,
      "componentType": 5125,
      "count": 55182,
      "type": "SCALAR"
    }
  ],
  "asset": {
    "extras": {
      "author": "binrubbish83 (https://sketchfab.com/binrubbish83)",
      "license": "CC-BY-4.0 (http://creativecommons.org/licenses/by/4.0/)",
      "source": "https://sketchfab.com/3d-models/black-widow-8829255be356434d992abc1fe7985707",
      "title": "Black Widow"
    },
    "generator": "Sketchfab-13.82.0",
    "version": "2.0"
  },
  "bufferViews": [
    {
      "buffer": 0,
      "byteLength": 1182264,
      "name": "floatBufferViews",
      "target": 34963
    },
    {
      "buffer": 0,
      "byteLength": 1202272,
      "byteOffset": 1182264,
      "byteStride": 8,
      "name": "floatBufferViews",
      "target": 34962
    },
    {
      "buffer": 0,
      "byteLength": 1803408,
      "byteOffset": 2384536,
      "byteStride": 12,
      "name": "floatBufferViews",
      "target": 34962
    }
  ],
  "buffers": [
    {
      "byteLength": 4187944,
      "uri": "scene.bin"
    }
  ],
  "images": [
    {
      "uri": "textures/accesories_baseColor.png"
    },
    {
      "uri": "textures/hand_baseColor.png"
    },
    {
      "uri": "textures/lower_baseColor.png"
    },
    {
      "uri": "textures/pants_baseColor.png"
    },
    {
      "uri": "textures/hair_baseColor.png"
    },
    {
      "uri": "textures/face_baseColor.png"
    },
    {
      "uri": "textures/berd_baseColor.png"
    },
    {
      "uri": "textures/head_baseColor.png"
    },
    {
      "uri": "textures/clothes_baseColor.png"
    }
  ],
  "materials": [
    {
      "doubleSided": true,
      "name": "accesories",
      "pbrMetallicRoughness": {
        "baseColorTexture": {
          "index": 0
        },
        "metallicFactor": 0.0,
        "roughnessFactor": 0.9390614553305373
      }
    },
    {
      "doubleSided": true,
      "name": "hand",
      "pbrMetallicRoughness": {
        "baseColorTexture": {
          "index": 1
        },
        "metallicFactor": 0.0,
        "roughnessFactor": 0.9390614553305373
      }
    },
    {
      "doubleSided": true,
      "name": "lower",
      "pbrMetallicRoughness": {
        "baseColorTexture": {
          "index": 2
        },
        "metallicFactor": 0.0,
        "roughnessFactor": 0.9390614553305373
      }
    },
    {
      "doubleSided": true,
      "name": "pants",
      "pbrMetallicRoughness": {
        "baseColorTexture": {
          "index": 3
        },
        "metallicFactor": 0.0,
        "roughnessFactor": 0.9390614553305373
      }
    },
    {
      "doubleSided": true,
      "name": "hair",
      "pbrMetallicRoughness": {
        "baseColorTexture": {
          "index": 4
        },
        "metallicFactor": 0.0,
        "roughnessFactor": 0.9390614553305373
      }
    },
    {
      "doubleSided": true,
      "name": "face",
      "pbrMetallicRoughness": {
        "baseColorTexture": {
          "index": 5
        },
        "metallicFactor": 0.0,
        "roughnessFactor": 0.9390614553305373
      }
    },
    {
      "doubleSided": true,
      "name": "berd",
      "pbrMetallicRoughness": {
        "baseColorTexture": {
          "index": 6
        },
        "metallicFactor": 0.0,
        "roughnessFactor": 0.9390614553305373
      }
    },
    {
      "doubleSided": true,
      "name": "head",
      "pbrMetallicRoughness": {
        "baseColorTexture": {
          "index": 7
        },
        "metallicFactor": 0.0,
        "roughnessFactor": 0.9390614553305373
      }
    },
    {
      "doubleSided": true,
      "name": "clothes",
      "pbrMetallicRoughness": {
        "baseColorTexture": {
          "index": 8
        },
        "metallicFactor": 0.0,
        "roughnessFactor": 0.9390614553305373
      }
    }
  ],
  "meshes": [
    {
      "name": "accesories_accesories_0",
      "primitives": [
        {
          "attributes": {
            "NORMAL": 1,
            "POSITION": 0,
            "TEXCOORD_0": 2,
            "TEXCOORD_1": 3
          },
          "indices": 4,
          "material": 0,
          "mode": 4
        }
      ]
    },
    {
      "name": "hand_hand_0",
      "primitives": [
        {
          "attributes": {
            "NORMAL": 6,
            "POSITION": 5,
            "TEXCOORD_0": 7,
            "TEXCOORD_1": 8
          },
          "indices": 9,
          "material": 1,
          "mode": 4
        }
      ]
    },
    {
      "name": "feet_lower_0",
      "primitives": [
        {
          "attributes": {
            "NORMAL": 11,
            "POSITION": 10,
            "TEXCOORD_0": 12,
            "TEXCOORD_1": 13
          },
          "indices": 14,
          "material": 2,
          "mode": 4
        }
      ]
    },
    {
      "name": "lower_pants_0",
      "primitives": [
        {
          "attributes": {
            "NORMAL": 16,
            "POSITION": 15,
            "TEXCOORD_0": 17,
            "TEXCOORD_1": 18
          },
          "indices": 19,
          "material": 3,
          "mode": 4
        }
      ]
    },
    {
      "name": "hair_hair_0",
      "primitives": [
        {
          "attributes": {
            "NORMAL": 21,
            "POSITION": 20,
            "TEXCOORD_0": 22,
            "TEXCOORD_1": 23
          },
          "indices": 24,
          "material": 4,
          "mode": 4
        }
      ]
    },
    {
      "name": "face_face_0",
      "primitives": [
        {
          "attributes": {
            "NORMAL": 26,
            "POSITION": 25,
            "TEXCOORD_0": 27,
            "TEXCOORD_1": 28
          },
          "indices": 29,
          "material": 5,
          "mode": 4
        }
      ]
    },
    {
      "name": "berd_berd_0",
      "primitives": [
        {
          "attributes": {
            "NORMAL": 31,
            "POSITION": 30,
            "TEXCOORD_0": 32,
            "TEXCOORD_1": 33
          },
          "indices": 34,
          "material": 6,
          "mode": 4
        }
      ]
    },
    {
      "name": "head_head_0",
      "primitives": [
        {
          "attributes": {
            "NORMAL": 36,
            "POSITION": 35,
            "TEXCOORD_0": 37,
            "TEXCOORD_1": 38
          },
          "indices": 39,
          "material": 7,
          "mode": 4
        }
      ]
    },
    {
      "name": "upper_clothes_0",
      "primitives": [
        {
          "attributes": {
            "NORMAL": 41,
            "POSITION": 40,
            "TEXCOORD_0": 42,
            "TEXCOORD_1": 43
          },
          "indices": 44,
          "material": 8,
          "mode": 4
        }
      ]
    }
  ],
  "nodes": [
    {
      "children": [
        1
      ],
      "matrix": [
        1.0,
        0.0,
        0.0,
        0.0,
        0.0,
        2.220446049250313e-16,
        -1.0,
        0.0,
        0.0,
        1.0,
        2.220446049250313e-16,
        0.0,
        0.0,
        0.0,
        0.0,
        1.0
      ],
      "name": "Sketchfab_model"
    },
    {
      "children": [
        2
      ],
      "matrix": [
        0.02539999969303608,
        0.0,
        0.0,
        0.0,
        0.0,
        0.0,
        0.02539999969303608,
        0.0,
        0.0,
        -0.02539999969303608,
        0.0,
        0.0,
        0.0,
        0.0,
        0.0,
        1.0
      ],
      "name": "black.FBX"
    },
    {
      "children": [
        3,
        5,
        7,
        9,
        11,
        13,
        15,
        17,
        19
      ],
      "name": "RootNode"
    },
    {
      "children": [
        4
      ],
      "matrix": [
        1.0,
        0.0,
        0.0,
        0.0,
        0.0,
        2.220446049250313e-16,
        -1.0,
        0.0,
        0.0,
        1.0,
        2.220446049250313e-16,
        0.0,
        0.0,
        0.0,
        0.0,
        1.0
      ],
      "name": "accesories"
    },
    {
      "mesh": 0,
      "name": "accesories_accesories_0"
    },
    {
      "children": [
        6
      ],
      "matrix": [
        1.0,
        0.0,
        0.0,
        0.0,
        0.0,
        2.220446049250313e-16,
        -1.0,
        0.0,
        0.0,
        1.0,
        2.220446049250313e-16,
        0.0,
        0.0,
        0.0,
        0.0,
        1.0
      ],
      "name": "hand"
    },
    {
      "mesh": 1,
      "name": "hand_hand_0"
    },
    {
      "children": [
        8
      ],
      "matrix": [
        1.0,
        0.0,
        0.0,
        0.0,
        0.0,
        2.220446049250313e-16,
        -1.0,
        0.0,
        0.0,
        1.0,
        2.220446049250313e-16,
        0.0,
        0.0,
        0.0,
        0.0,
        1.0
      ],
      "name": "feet"
    },
    {
      "mesh": 2,
      "name": "feet_lower_0"
    },
    {
      "children": [
        10
      ],
      "matrix": [
        1.0,
        0.0,
        0.0,
        0.0,
        0.0,
        2.220446049250313e-16,
        -1.0,
        0.0,
        0.0,
        1.0,
        2.220446049250313e-16,
        0.0,
        0.0,
        0.0,
        0.0,
        1.0
      ],
      "name": "lower"
    },
    {
      "mesh": 3,
      "name": "lower_pants_0"
    },
    {
      "children": [
        12
      ],
      "matrix": [
        1.0,
        0.0,
        0.0,
        0.0,
        0.0,
        2.220446049250313e-16,
        -1.0,
        0.0,
        0.0,
        1.0,
        2.220446049250313e-16,
        0.0,
        0.0,
        0.0,
        0.0,
        1.0
      ],
      "name": "hair"
    },
    {
      "mesh": 4,
      "name": "hair_hair_0"
    },
    {
      "children": [
        14
      ],
      "matrix": [
        1.0,
        0.0,
        0.0,
        0.0,
        0.0,
        2.220446049250313e-16,
        -1.0,
        0.0,
        0.0,
        1.0,
        2.220446049250313e-16,
        0.0,
        0.0,
        0.0,
        0.0,
        1.0
      ],
      "name": "face"
    },
    {
      "mesh": 5,
      "name": "face_face_0"
    },
    {
      "children": [
        16
      ],
      "matrix": [
        1.0,
        0.0,
        0.0,
        0.0,
        0.0,
        2.220446049250313e-16,
        -1.0,
        0.0,
        0.0,
        1.0,
        2.220446049250313e-16,
        0.0,
        0.0,
        0.0,
        0.0,
        1.0
      ],
      "name": "berd"
    },
    {
      "mesh": 6,
      "name": "berd_berd_0"
    },
    {
      "children": [
        18
      ],
      "matrix": [
        1.0,
        0.0,
        0.0,
        0.0,
        0.0,
        2.220446049250313e-16,
        -1.0,
        0.0,
        0.0,
        1.0,
        2.220446049250313e-16,
        0.0,
        0.0,
        0.0,
        0.0,
        1.0
      ],
      "name": "head"
    },
    {
      "mesh": 7,
      "name": "head_head_0"
    },
    {
      "children": [
        20
      ],
      "matrix": [
        1.0,
        0.0,
        0.0,
        0.0,
        0.0,
        2.220446049250313e-16,
        -1.0,
        0.0,
        0.0,
        1.0,
        2.220446049250313e-16,
        0.0,
        0.0,
        0.0,
        0.0,
        1.0
      ],
      "name": "upper"
    },
    {
      "mesh": 8,
      "name": "upper_clothes_0"
    }
  ],
  "samplers": [
    {
      "magFilter": 9729,
      "minFilter": 9987,
      "wrapS": 10497,
      "wrapT": 10497
    }
  ],
  "scene": 0,
  "scenes": [
    {
      "name": "Sketchfab_Scene",
      "nodes": [
        0
      ]
    }
  ],
  "textures": [
    {
      "sampler": 0,
      "source": 0
    },
    {
      "sampler": 0,
      "source": 1
    },
    {
      "sampler": 0,
      "source": 2
    },
    {
      "sampler": 0,
      "source": 3
    },
    {
      "sampler": 0,
      "source": 4
    },
    {
      "sampler": 0,
      "source": 5
    },
    {
      "sampler": 0,
      "source": 6
    },
    {
      "sampler": 0,
      "source": 7
    },
    {
      "sampler": 0,
      "source": 8
    }
  ]
}
