{
  "accessors": [
    {
      "bufferView": 2,
      "componentType": 5126,
      "count": 12781,
      "max": [
        0.6660661101341248,
        0.2047937959432602,
        1.6665459871292114
      ],
      "min": [
        -0.6037873029708862,
        -0.1697431057691574,
        -0.0024385920260101557
      ],
      "type": "VEC3"
    },
    {
      "bufferView": 2,
      "byteOffset": 153372,
      "componentType": 5126,
      "count": 12781,
      "max": [
        0.9997828006744385,
        0.9999977946281433,
        0.9991114139556885
      ],
      "min": [
        -0.9995440244674683,
        -0.9999809265136719,
        -0.999711811542511
      ],
      "type": "VEC3"
    },
    {
      "bufferView": 1,
      "componentType": 5126,
      "count": 12781,
      "max": [
        0.9960939884185791,
        0.9972249865531921
      ],
      "min": [
        0.0026990000624209642,
        0.003418027888983488
      ],
      "type": "VEC2"
    },
    {
      "bufferView": 0,
      "componentType": 5125,
      "count": 66039,
      "type": "SCALAR"
    },
    {
      "bufferView": 2,
      "byteOffset": 306744,
      "componentType": 5126,
      "count": 1449,
      "max": [
        0.6665108799934387,
        0.024695560336112976,
        1.1819649934768677
      ],
      "min": [
        -0.6665111184120178,
        -0.16974300146102905,
        -0.0024384181015193462
      ],
      "type": "VEC3"
    },
    {
      "bufferView": 2,
      "byteOffset": 324132,
      "componentType": 5126,
      "count": 1449,
      "max": [
        0.9992734789848328,
        0.9995266795158386,
        0.9962273836135864
      ],
      "min": [
        -0.9997828006744385,
        -0.9993153214454651,
        -0.9998705983161926
      ],
      "type": "VEC3"
    },
    {
      "bufferView": 1,
      "byteOffset": 102248,
      "componentType": 5126,
      "count": 1449,
      "max": [
        0.9960939884185791,
        0.9431149959564209
      ],
      "min": [
        0.3469240069389343,
        0.6704099774360657
      ],
      "type": "VEC2"
    },
    {
      "bufferView": 0,
      "byteOffset": 264156,
      "componentType": 5125,
      "count": 7173,
      "type": "SCALAR"
    },
    {
      "bufferView": 2,
      "byteOffset": 341520,
      "componentType": 5126,
      "count": 3569,
      "max": [
        0.11427950114011765,
        0.13684800267219543,
        1.8576409816741943
      ],
      "min": [
        -0.11428210139274597,
        -0.11344300210475922,
        1.5116970539093018
      ],
      "type": "VEC3"
    },
    {
      "bufferView": 2,
      "byteOffset": 384348,
      "componentType": 5126,
      "count": 3569,
      "max": [
        0.9999281167984009,
        0.9997928142547607,
        1.0
      ],
      "min": [
        -0.9999281167984009,
        -0.999998927116394,
        -1.0
      ],
      "type": "VEC3"
    },
    {
      "bufferView": 1,
      "byteOffset": 113840,
      "componentType": 5126,
      "count": 3569,
      "max": [
        0.9916989803314209,
        0.9974120259284973
      ],
      "min": [
        0.004738000221550465,
        0.003418027888983488
      ],
      "type": "VEC2"
    },
    {
      "bufferView": 0,
      "byteOffset": 292848,
      "componentType": 5125,
      "count": 19440,
      "type": "SCALAR"
    },
    {
      "bufferView": 2,
      "byteOffset": 427176,
      "componentType": 5126,
      "count": 1900,
      "max": [
        0.1162882000207901,
        0.1439184993505478,
        1.8626259565353394
      ],
      "min": [
        -0.11628829687833786,
        -0.10549359768629074,
        1.5210349559783936
      ],
      "type": "VEC3"
    },
    {
      "bufferView": 2,
      "byteOffset": 449976,
      "componentType": 5126,
      "count": 1900,
      "max": [
        0.999855101108551,
        0.9994384050369263,
        0.9994913935661316
      ],
      "min": [
        -0.999855101108551,
        -0.9997934103012085,
        -0.9997671842575073
      ],
      "type": "VEC3"
    },
    {
      "bufferView": 1,
      "byteOffset": 142392,
      "componentType": 5126,
      "count": 1900,
      "max": [
        0.9892579913139343,
        0.9819030165672302
      ],
      "min": [
        0.015602000057697296,
        0.01269500982016325
      ],
      "type": "VEC2"
    },
    {
      "bufferView": 0,
      "byteOffset": 370608,
      "componentType": 5125,
      "count": 10014,
      "type": "SCALAR"
    }
  ],
  "asset": {
    "extras": {
      "author": "EWTube0 (https://sketchfab.com/EWTube0)",
      "license": "CC-BY-4.0 (http://creativecommons.org/licenses/by/4.0/)",
      "source": "https://sketchfab.com/3d-models/fortnite-captain-america-ef718c56291f46f0808819cd66b222c6",
      "title": "Fortnite: Captain America"
    },
    "generator": "Sketchfab-12.68.0",
    "version": "2.0"
  },
  "bufferViews": [
    {
      "buffer": 0,
      "byteLength": 410664,
      "name": "floatBufferViews",
      "target": 34963
    },
    {
      "buffer": 0,
      "byteLength": 157592,
      "byteOffset": 410664,
      "byteStride": 8,
      "name": "floatBufferViews",
      "target": 34962
    },
    {
      "buffer": 0,
      "byteLength": 472776,
      "byteOffset": 568256,
      "byteStride": 12,
      "name": "floatBufferViews",
      "target": 34962
    }
  ],
  "buffers": [
    {
      "byteLength": 1041032,
      "uri": "scene.bin"
    }
  ],
  "images": [
    {
      "uri": "textures/Model001_Material001_baseColor.png"
    },
    {
      "uri": "textures/Model001_Material003_baseColor.png"
    },
    {
      "uri": "textures/Model001_Material004_baseColor.png"
    }
  ],
  "materials": [
    {
      "doubleSided": true,
      "name": "Model001_Material001",
      "pbrMetallicRoughness": {
        "baseColorTexture": {
          "index": 0
        },
        "metallicFactor": 0.0
      }
    },
    {
      "doubleSided": true,
      "name": "Model001_Material002",
      "pbrMetallicRoughness": {
        "baseColorTexture": {
          "index": 0
        },
        "metallicFactor": 0.0
      }
    },
    {
      "doubleSided": true,
      "name": "Model001_Material003",
      "pbrMetallicRoughness": {
        "baseColorTexture": {
          "index": 1
        },
        "metallicFactor": 0.0
      }
    },
    {
      "doubleSided": true,
      "name": "Model001_Material004",
      "pbrMetallicRoughness": {
        "baseColorTexture": {
          "index": 2
        },
        "metallicFactor": 0.0
      }
    }
  ],
  "meshes": [
    {
      "name": "Object_0",
      "primitives": [
        {
          "attributes": {
            "NORMAL": 1,
            "POSITION": 0,
            "TEXCOORD_0": 2
          },
          "indices": 3,
          "material": 0,
          "mode": 4
        }
      ]
    },
    {
      "name": "Object_1",
      "primitives": [
        {
          "attributes": {
            "NORMAL": 5,
            "POSITION": 4,
            "TEXCOORD_0": 6
          },
          "indices": 7,
          "material": 1,
          "mode": 4
        }
      ]
    },
    {
      "name": "Object_2",
      "primitives": [
        {
          "attributes": {
            "NORMAL": 9,
            "POSITION": 8,
            "TEXCOORD_0": 10
          },
          "indices": 11,
          "material": 2,
          "mode": 4
        }
      ]
    },
    {
      "name": "Object_3",
      "primitives": [
        {
          "attributes": {
            "NORMAL": 13,
            "POSITION": 12,
            "TEXCOORD_0": 14
          },
          "indices": 15,
          "material": 3,
          "mode": 4
        }
      ]
    }
  ],
  "nodes": [
    {
      "children": [
        1
      ],
      "matrix": [
        1.0,
        0.0,
        0.0,
        0.0,
        0.0,
        2.220446049250313e-16,
        -1.0,
        0.0,
        0.0,
        1.0,
        2.220446049250313e-16,
        0.0,
        0.0,
        0.0,
        0.0,
        1.0
      ],
      "name": "Sketchfab_model"
    },
    {
      "children": [
        2,
        3,
        4,
        5
      ],
      "name": "Fortnite Captain America.obj.cleaner.materialmerger.gles"
    },
    {
      "mesh": 0,
      "name": "Object_2"
    },
    {
      "mesh": 1,
      "name": "Object_3"
    },
    {
      "mesh": 2,
      "name": "Object_4"
    },
    {
      "mesh": 3,
      "name": "Object_5"
    }
  ],
  "samplers": [
    {
      "magFilter": 9729,
      "minFilter": 9987,
      "wrapS": 10497,
      "wrapT": 10497
    }
  ],
  "scene": 0,
  "scenes": [
    {
      "name": "Sketchfab_Scene",
      "nodes": [
        0
      ]
    }
  ],
  "textures": [
    {
      "sampler": 0,
      "source": 0
    },
    {
      "sampler": 0,
      "source": 1
    },
    {
      "sampler": 0,
      "source": 2
    }
  ]
}
