{
  "accessors": [
    {
      "bufferView": 2,
      "componentType": 5126,
      "count": 65532,
      "max": [
        0.8712999820709229,
        0.7501199841499329,
        1.559980034828186
      ],
      "min": [
        -1.145859956741333,
        -0.8193100094795227,
        -0.0012199999764561653
      ],
      "type": "VEC3"
    },
    {
      "bufferView": 2,
      "byteOffset": 786384,
      "componentType": 5126,
      "count": 65532,
      "max": [
        0.999951958656311,
        0.9999515414237976,
        1.0
      ],
      "min": [
        -0.9999663233757019,
        -0.999998927116394,
        -0.9996423721313477
      ],
      "type": "VEC3"
    },
    {
      "bufferView": 1,
      "componentType": 5126,
      "count": 65532,
      "max": [
        0.9979249835014343,
        0.9915900230407715
      ],
      "min": [
        0.041228998452425,
        0.229993999004364
      ],
      "type": "VEC2"
    },
    {
      "bufferView": 0,
      "componentType": 5125,
      "count": 329259,
      "type": "SCALAR"
    },
    {
      "bufferView": 2,
      "byteOffset": 1572768,
      "componentType": 5126,
      "count": 65532,
      "max": [
        0.8712999820709229,
        0.7501199841499329,
        1.5355600118637085
      ],
      "min": [
        -1.145859956741333,
        -0.8193100094795227,
        -0.0035500000230968
      ],
      "type": "VEC3"
    },
    {
      "bufferView": 2,
      "byteOffset": 2359152,
      "componentType": 5126,
      "count": 65532,
      "max": [
        0.9999460577964783,
        0.9999566078186035,
        1.0
      ],
      "min": [
        -0.9999284744262695,
        -0.9999905824661255,
        -0.9964373707771301
      ],
      "type": "VEC3"
    },
    {
      "bufferView": 1,
      "byteOffset": 524256,
      "componentType": 5126,
      "count": 65532,
      "max": [
        0.9917070269584656,
        0.991657018661499
      ],
      "min": [
        0.002094999887049198,
        0.2305240035057068
      ],
      "type": "VEC2"
    },
    {
      "bufferView": 0,
      "byteOffset": 1317036,
      "componentType": 5125,
      "count": 358188,
      "type": "SCALAR"
    },
    {
      "bufferView": 2,
      "byteOffset": 3145536,
      "componentType": 5126,
      "count": 38874,
      "max": [
        0.8712999820709229,
        0.7501199841499329,
        1.559980034828186
      ],
      "min": [
        -0.9154899716377258,
        -0.6962299942970276,
        0.009750000201165676
      ],
      "type": "VEC3"
    },
    {
      "bufferView": 2,
      "byteOffset": 3612024,
      "componentType": 5126,
      "count": 38874,
      "max": [
        0.9999407529830933,
        0.9998782277107239,
        1.0
      ],
      "min": [
        -0.999978244304657,
        -0.9999351501464844,
        -0.9684448838233948
      ],
      "type": "VEC3"
    },
    {
      "bufferView": 1,
      "byteOffset": 1048512,
      "componentType": 5126,
      "count": 38874,
      "max": [
        0.9971920251846313,
        0.853289008140564
      ],
      "min": [
        0.14019499719142914,
        0.23137499392032623
      ],
      "type": "VEC2"
    },
    {
      "bufferView": 0,
      "byteOffset": 2749788,
      "componentType": 5125,
      "count": 203766,
      "type": "SCALAR"
    }
  ],
  "asset": {
    "extras": {
      "author": "rwolzinger (https://sketchfab.com/rwolzinger)",
      "license": "CC-BY-NC-SA-4.0 (http://creativecommons.org/licenses/by-nc-sa/4.0/)",
      "source": "https://sketchfab.com/3d-models/stan-lee-comic-con-127cc2e86c00426faf0e7cbbce1f4d7a",
      "title": "Stan Lee Comic Con"
    },
    "generator": "Sketchfab-13.74.0",
    "version": "2.0"
  },
  "bufferViews": [
    {
      "buffer": 0,
      "byteLength": 3564852,
      "name": "floatBufferViews",
      "target": 34963
    },
    {
      "buffer": 0,
      "byteLength": 1359504,
      "byteOffset": 3564852,
      "byteStride": 8,
      "name": "floatBufferViews",
      "target": 34962
    },
    {
      "buffer": 0,
      "byteLength": 4078512,
      "byteOffset": 4924356,
      "byteStride": 12,
      "name": "floatBufferViews",
      "target": 34962
    }
  ],
  "buffers": [
    {
      "byteLength": 9002868,
      "uri": "scene.bin"
    }
  ],
  "extensionsUsed": [
    "KHR_materials_unlit"
  ],
  "images": [
    {
      "uri": "textures/main_baseColor.jpeg"
    }
  ],
  "materials": [
    {
      "doubleSided": true,
      "extensions": {
        "KHR_materials_unlit": {}
      },
      "name": "main",
      "pbrMetallicRoughness": {
        "baseColorTexture": {
          "index": 0
        },
        "metallicFactor": 0.0
      }
    }
  ],
  "meshes": [
    {
      "name": "Object_0",
      "primitives": [
        {
          "attributes": {
            "NORMAL": 1,
            "POSITION": 0,
            "TEXCOORD_0": 2
          },
          "indices": 3,
          "material": 0,
          "mode": 4
        }
      ]
    },
    {
      "name": "Object_1",
      "primitives": [
        {
          "attributes": {
            "NORMAL": 5,
            "POSITION": 4,
            "TEXCOORD_0": 6
          },
          "indices": 7,
          "material": 0,
          "mode": 4
        }
      ]
    },
    {
      "name": "Object_2",
      "primitives": [
        {
          "attributes": {
            "NORMAL": 9,
            "POSITION": 8,
            "TEXCOORD_0": 10
          },
          "indices": 11,
          "material": 0,
          "mode": 4
        }
      ]
    }
  ],
  "nodes": [
    {
      "children": [
        1
      ],
      "matrix": [
        1.0,
        0.0,
        0.0,
        0.0,
        0.0,
        2.220446049250313e-16,
        -1.0,
        0.0,
        0.0,
        1.0,
        2.220446049250313e-16,
        0.0,
        0.0,
        0.0,
        0.0,
        1.0
      ],
      "name": "Sketchfab_model"
    },
    {
      "children": [
        2,
        3,
        4
      ],
      "name": "Scaniverse.obj.cleaner.materialmerger.gles"
    },
    {
      "mesh": 0,
      "name": "Object_2"
    },
    {
      "mesh": 1,
      "name": "Object_3"
    },
    {
      "mesh": 2,
      "name": "Object_4"
    }
  ],
  "samplers": [
    {
      "magFilter": 9729,
      "minFilter": 9987,
      "wrapS": 10497,
      "wrapT": 10497
    }
  ],
  "scene": 0,
  "scenes": [
    {
      "name": "Sketchfab_Scene",
      "nodes": [
        0
      ]
    }
  ],
  "textures": [
    {
      "sampler": 0,
      "source": 0
    }
  ]
}
